<mxfile>
    <diagram id="Ii8Tv8HFhUbCacxXzqfN" name="Page-1">
        <mxGraphModel dx="3426" dy="2200" grid="0" gridSize="10" guides="0" tooltips="1" connect="1" arrows="1" fold="1" page="1" pageScale="1" pageWidth="850" pageHeight="1100" math="0" shadow="0">
            <root>
                <mxCell id="0"/>
                <mxCell id="1" parent="0"/>
                <mxCell id="IqH7RvX4oLX1a9FG3Iel-3" value="Universities" style="rounded=0;whiteSpace=wrap;html=1;" parent="1" vertex="1">
                    <mxGeometry x="400" y="-30" width="120" height="60" as="geometry"/>
                </mxCell>
                <mxCell id="IqH7RvX4oLX1a9FG3Iel-4" value="Locations" style="rounded=0;whiteSpace=wrap;html=1;" parent="1" vertex="1">
                    <mxGeometry x="120" y="-30" width="120" height="60" as="geometry"/>
                </mxCell>
                <mxCell id="IqH7RvX4oLX1a9FG3Iel-5" value="longitude" style="ellipse;whiteSpace=wrap;html=1;" parent="1" vertex="1">
                    <mxGeometry x="185" y="70" width="70" height="70" as="geometry"/>
                </mxCell>
                <mxCell id="IqH7RvX4oLX1a9FG3Iel-6" value="latitude" style="ellipse;whiteSpace=wrap;html=1;" parent="1" vertex="1">
                    <mxGeometry x="50" y="70" width="70" height="70" as="geometry"/>
                </mxCell>
                <mxCell id="IqH7RvX4oLX1a9FG3Iel-7" value="&lt;u&gt;locationName&lt;/u&gt;" style="ellipse;whiteSpace=wrap;html=1;" parent="1" vertex="1">
                    <mxGeometry x="5" y="-20" width="70" height="70" as="geometry"/>
                </mxCell>
                <mxCell id="IqH7RvX4oLX1a9FG3Iel-10" value="noOfStudents" style="ellipse;whiteSpace=wrap;html=1;" parent="1" vertex="1">
                    <mxGeometry x="560" y="70" width="70" height="70" as="geometry"/>
                </mxCell>
                <mxCell id="IqH7RvX4oLX1a9FG3Iel-11" value="e_time" style="ellipse;whiteSpace=wrap;html=1;" parent="1" vertex="1">
                    <mxGeometry x="-220" y="-585" width="70" height="70" as="geometry"/>
                </mxCell>
                <mxCell id="IqH7RvX4oLX1a9FG3Iel-12" value="description" style="ellipse;whiteSpace=wrap;html=1;" parent="1" vertex="1">
                    <mxGeometry x="549" y="-100" width="70" height="70" as="geometry"/>
                </mxCell>
                <mxCell id="IqH7RvX4oLX1a9FG3Iel-15" value="e_category" style="ellipse;whiteSpace=wrap;html=1;" parent="1" vertex="1">
                    <mxGeometry x="-290" y="-510" width="70" height="70" as="geometry"/>
                </mxCell>
                <mxCell id="IqH7RvX4oLX1a9FG3Iel-19" value="e_contactEmail" style="ellipse;whiteSpace=wrap;html=1;" parent="1" vertex="1">
                    <mxGeometry x="-105" y="-680" width="70" height="70" as="geometry"/>
                </mxCell>
                <mxCell id="IqH7RvX4oLX1a9FG3Iel-20" value="e_contactPhone&lt;br&gt;" style="ellipse;whiteSpace=wrap;html=1;" parent="1" vertex="1">
                    <mxGeometry x="-200" y="-680" width="70" height="70" as="geometry"/>
                </mxCell>
                <mxCell id="IqH7RvX4oLX1a9FG3Iel-22" value="u_name" style="ellipse;whiteSpace=wrap;html=1;" parent="1" vertex="1">
                    <mxGeometry x="470" y="85" width="70" height="70" as="geometry"/>
                </mxCell>
                <mxCell id="IqH7RvX4oLX1a9FG3Iel-23" value="&lt;u&gt;u_id&lt;/u&gt;" style="ellipse;whiteSpace=wrap;html=1;" parent="1" vertex="1">
                    <mxGeometry x="360" y="85" width="70" height="70" as="geometry"/>
                </mxCell>
                <mxCell id="IqH7RvX4oLX1a9FG3Iel-38" value="&lt;font style=&quot;font-size: 14px&quot;&gt;RSOs&lt;/font&gt;" style="whiteSpace=wrap;html=1;" parent="1" vertex="1">
                    <mxGeometry x="135" y="-690" width="120" height="60" as="geometry"/>
                </mxCell>
                <mxCell id="IqH7RvX4oLX1a9FG3Iel-39" value="&lt;font style=&quot;font-size: 14px&quot;&gt;&lt;u&gt;rso_id&lt;/u&gt;&lt;/font&gt;" style="ellipse;whiteSpace=wrap;html=1;" parent="1" vertex="1">
                    <mxGeometry x="40" y="-740" width="70" height="70" as="geometry"/>
                </mxCell>
                <mxCell id="IqH7RvX4oLX1a9FG3Iel-40" value="&lt;font style=&quot;font-size: 14px&quot;&gt;rso_name&lt;/font&gt;" style="ellipse;whiteSpace=wrap;html=1;" parent="1" vertex="1">
                    <mxGeometry x="175" y="-810" width="70" height="70" as="geometry"/>
                </mxCell>
                <mxCell id="IqH7RvX4oLX1a9FG3Iel-44" value="&lt;span style=&quot;font-size: 14px&quot;&gt;Events&lt;/span&gt;" style="whiteSpace=wrap;html=1;" parent="1" vertex="1">
                    <mxGeometry x="-115" y="-485" width="120" height="60" as="geometry"/>
                </mxCell>
                <mxCell id="IqH7RvX4oLX1a9FG3Iel-45" value="&lt;font style=&quot;font-size: 14px&quot;&gt;&lt;u&gt;e_id&lt;/u&gt;&lt;/font&gt;" style="ellipse;whiteSpace=wrap;html=1;" parent="1" vertex="1">
                    <mxGeometry x="-40" y="-630" width="70" height="70" as="geometry"/>
                </mxCell>
                <mxCell id="IqH7RvX4oLX1a9FG3Iel-47" value="&lt;font style=&quot;font-size: 14px&quot;&gt;e_name&lt;/font&gt;" style="ellipse;whiteSpace=wrap;html=1;" parent="1" vertex="1">
                    <mxGeometry x="-250" y="-430" width="70" height="70" as="geometry"/>
                </mxCell>
                <mxCell id="IqH7RvX4oLX1a9FG3Iel-49" value="&lt;font style=&quot;font-size: 14px&quot;&gt;e_date&lt;/font&gt;" style="ellipse;whiteSpace=wrap;html=1;" parent="1" vertex="1">
                    <mxGeometry x="-200" y="-370" width="70" height="70" as="geometry"/>
                </mxCell>
                <mxCell id="IqH7RvX4oLX1a9FG3Iel-58" value="" style="endArrow=none;html=1;entryX=1;entryY=0;entryDx=0;entryDy=0;" parent="1" source="IqH7RvX4oLX1a9FG3Iel-3" target="IqH7RvX4oLX1a9FG3Iel-23" edge="1">
                    <mxGeometry width="50" height="50" relative="1" as="geometry">
                        <mxPoint x="85" y="20" as="sourcePoint"/>
                        <mxPoint x="135" y="-30" as="targetPoint"/>
                    </mxGeometry>
                </mxCell>
                <mxCell id="IqH7RvX4oLX1a9FG3Iel-74" value="SuperAdmins" style="rounded=0;whiteSpace=wrap;html=1;" parent="1" vertex="1">
                    <mxGeometry x="429" y="-230" width="120" height="60" as="geometry"/>
                </mxCell>
                <mxCell id="IqH7RvX4oLX1a9FG3Iel-85" value="" style="endArrow=none;html=1;exitX=0.75;exitY=1;exitDx=0;exitDy=0;" parent="1" source="IqH7RvX4oLX1a9FG3Iel-3" target="IqH7RvX4oLX1a9FG3Iel-22" edge="1">
                    <mxGeometry width="50" height="50" relative="1" as="geometry">
                        <mxPoint x="253" y="30" as="sourcePoint"/>
                        <mxPoint x="235" y="10" as="targetPoint"/>
                    </mxGeometry>
                </mxCell>
                <mxCell id="IqH7RvX4oLX1a9FG3Iel-114" value="Students" style="rounded=0;whiteSpace=wrap;html=1;" parent="1" vertex="1">
                    <mxGeometry x="430" y="-560" width="120" height="60" as="geometry"/>
                </mxCell>
                <mxCell id="IqH7RvX4oLX1a9FG3Iel-115" value="sa_password" style="ellipse;whiteSpace=wrap;html=1;direction=east;" parent="1" vertex="1">
                    <mxGeometry x="350" y="-320" width="70" height="70" as="geometry"/>
                </mxCell>
                <mxCell id="IqH7RvX4oLX1a9FG3Iel-116" value="s_email" style="ellipse;whiteSpace=wrap;html=1;" parent="1" vertex="1">
                    <mxGeometry x="499" y="-470" width="70" height="70" as="geometry"/>
                </mxCell>
                <mxCell id="IqH7RvX4oLX1a9FG3Iel-117" value="sa_lastName" style="ellipse;whiteSpace=wrap;html=1;" parent="1" vertex="1">
                    <mxGeometry x="540" y="-320" width="70" height="70" as="geometry"/>
                </mxCell>
                <mxCell id="IqH7RvX4oLX1a9FG3Iel-119" value="sa_firstName" style="ellipse;whiteSpace=wrap;html=1;" parent="1" vertex="1">
                    <mxGeometry x="454" y="-320" width="70" height="70" as="geometry"/>
                </mxCell>
                <mxCell id="IqH7RvX4oLX1a9FG3Iel-120" value="" style="endArrow=none;html=1;entryX=0.5;entryY=1;entryDx=0;entryDy=0;" parent="1" source="IqH7RvX4oLX1a9FG3Iel-116" target="IqH7RvX4oLX1a9FG3Iel-114" edge="1">
                    <mxGeometry width="50" height="50" relative="1" as="geometry">
                        <mxPoint x="815" y="-800" as="sourcePoint"/>
                        <mxPoint x="725" y="-370" as="targetPoint"/>
                    </mxGeometry>
                </mxCell>
                <mxCell id="IqH7RvX4oLX1a9FG3Iel-121" value="" style="endArrow=none;html=1;exitX=0;exitY=1;exitDx=0;exitDy=0;" parent="1" source="IqH7RvX4oLX1a9FG3Iel-117" target="IqH7RvX4oLX1a9FG3Iel-74" edge="1">
                    <mxGeometry width="50" height="50" relative="1" as="geometry">
                        <mxPoint x="825" y="-790" as="sourcePoint"/>
                        <mxPoint x="785" y="-370" as="targetPoint"/>
                    </mxGeometry>
                </mxCell>
                <mxCell id="IqH7RvX4oLX1a9FG3Iel-122" value="" style="endArrow=none;html=1;exitX=0.5;exitY=1;exitDx=0;exitDy=0;entryX=0.5;entryY=0;entryDx=0;entryDy=0;" parent="1" source="IqH7RvX4oLX1a9FG3Iel-119" target="IqH7RvX4oLX1a9FG3Iel-74" edge="1">
                    <mxGeometry width="50" height="50" relative="1" as="geometry">
                        <mxPoint x="835" y="-780" as="sourcePoint"/>
                        <mxPoint x="725" y="-430" as="targetPoint"/>
                    </mxGeometry>
                </mxCell>
                <mxCell id="IqH7RvX4oLX1a9FG3Iel-124" value="" style="endArrow=none;html=1;exitX=0.957;exitY=0.786;exitDx=0;exitDy=0;entryX=0.25;entryY=0;entryDx=0;entryDy=0;exitPerimeter=0;" parent="1" source="IqH7RvX4oLX1a9FG3Iel-115" target="IqH7RvX4oLX1a9FG3Iel-74" edge="1">
                    <mxGeometry width="50" height="50" relative="1" as="geometry">
                        <mxPoint x="855" y="-760" as="sourcePoint"/>
                        <mxPoint x="760" y="-430" as="targetPoint"/>
                    </mxGeometry>
                </mxCell>
                <mxCell id="IqH7RvX4oLX1a9FG3Iel-129" value="" style="endArrow=none;html=1;exitX=0;exitY=0.5;exitDx=0;exitDy=0;entryX=0.7;entryY=1.017;entryDx=0;entryDy=0;entryPerimeter=0;" parent="1" source="IqH7RvX4oLX1a9FG3Iel-130" target="IqH7RvX4oLX1a9FG3Iel-74" edge="1">
                    <mxGeometry width="50" height="50" relative="1" as="geometry">
                        <mxPoint x="845" y="-770" as="sourcePoint"/>
                        <mxPoint x="760" y="-420" as="targetPoint"/>
                    </mxGeometry>
                </mxCell>
                <mxCell id="IqH7RvX4oLX1a9FG3Iel-130" value="&lt;u&gt;sa_id&lt;/u&gt;" style="ellipse;whiteSpace=wrap;html=1;" parent="1" vertex="1">
                    <mxGeometry x="549" y="-180" width="70" height="70" as="geometry"/>
                </mxCell>
                <mxCell id="IqH7RvX4oLX1a9FG3Iel-131" value="" style="endArrow=none;html=1;exitX=0.1;exitY=0.983;exitDx=0;exitDy=0;entryX=0.5;entryY=0;entryDx=0;entryDy=0;exitPerimeter=0;" parent="1" source="IqH7RvX4oLX1a9FG3Iel-114" target="IqH7RvX4oLX1a9FG3Iel-132" edge="1">
                    <mxGeometry width="50" height="50" relative="1" as="geometry">
                        <mxPoint x="855" y="-760" as="sourcePoint"/>
                        <mxPoint x="480" y="-260" as="targetPoint"/>
                    </mxGeometry>
                </mxCell>
                <mxCell id="IqH7RvX4oLX1a9FG3Iel-132" value="&lt;u&gt;s_id&lt;/u&gt;" style="ellipse;whiteSpace=wrap;html=1;" parent="1" vertex="1">
                    <mxGeometry x="410" y="-450" width="70" height="70" as="geometry"/>
                </mxCell>
                <mxCell id="IqH7RvX4oLX1a9FG3Iel-135" value="createsUniversities&lt;br&gt;" style="rhombus;whiteSpace=wrap;html=1;" parent="1" vertex="1">
                    <mxGeometry x="440" y="-140" width="80" height="80" as="geometry"/>
                </mxCell>
                <mxCell id="IqH7RvX4oLX1a9FG3Iel-144" value="" style="endArrow=none;html=1;exitX=1;exitY=0;exitDx=0;exitDy=0;" parent="1" source="IqH7RvX4oLX1a9FG3Iel-3" target="IqH7RvX4oLX1a9FG3Iel-12" edge="1">
                    <mxGeometry width="50" height="50" relative="1" as="geometry">
                        <mxPoint x="140" y="60" as="sourcePoint"/>
                        <mxPoint x="190" y="10" as="targetPoint"/>
                    </mxGeometry>
                </mxCell>
                <mxCell id="IqH7RvX4oLX1a9FG3Iel-146" value="" style="endArrow=none;html=1;entryX=1;entryY=1;entryDx=0;entryDy=0;exitX=0;exitY=0;exitDx=0;exitDy=0;" parent="1" source="IqH7RvX4oLX1a9FG3Iel-10" target="IqH7RvX4oLX1a9FG3Iel-3" edge="1">
                    <mxGeometry width="50" height="50" relative="1" as="geometry">
                        <mxPoint x="160" y="80" as="sourcePoint"/>
                        <mxPoint x="210" y="30" as="targetPoint"/>
                    </mxGeometry>
                </mxCell>
                <mxCell id="IqH7RvX4oLX1a9FG3Iel-147" value="locates on" style="rhombus;whiteSpace=wrap;html=1;" parent="1" vertex="1">
                    <mxGeometry x="280" y="-40" width="80" height="80" as="geometry"/>
                </mxCell>
                <mxCell id="IqH7RvX4oLX1a9FG3Iel-148" value="" style="endArrow=none;html=1;entryX=0.5;entryY=0;entryDx=0;entryDy=0;exitX=0.75;exitY=1;exitDx=0;exitDy=0;" parent="1" source="IqH7RvX4oLX1a9FG3Iel-4" target="IqH7RvX4oLX1a9FG3Iel-5" edge="1">
                    <mxGeometry width="50" height="50" relative="1" as="geometry">
                        <mxPoint x="60" y="80" as="sourcePoint"/>
                        <mxPoint x="140" y="110" as="targetPoint"/>
                    </mxGeometry>
                </mxCell>
                <mxCell id="IqH7RvX4oLX1a9FG3Iel-149" value="" style="endArrow=none;html=1;exitX=0.5;exitY=1;exitDx=0;exitDy=0;entryX=1;entryY=0.5;entryDx=0;entryDy=0;" parent="1" source="IqH7RvX4oLX1a9FG3Iel-4" target="IqH7RvX4oLX1a9FG3Iel-6" edge="1">
                    <mxGeometry width="50" height="50" relative="1" as="geometry">
                        <mxPoint x="185" y="110" as="sourcePoint"/>
                        <mxPoint x="150" y="120" as="targetPoint"/>
                    </mxGeometry>
                </mxCell>
                <mxCell id="IqH7RvX4oLX1a9FG3Iel-150" value="" style="endArrow=none;html=1;exitX=0;exitY=0.5;exitDx=0;exitDy=0;entryX=1;entryY=0.5;entryDx=0;entryDy=0;" parent="1" source="IqH7RvX4oLX1a9FG3Iel-4" target="IqH7RvX4oLX1a9FG3Iel-7" edge="1">
                    <mxGeometry width="50" height="50" relative="1" as="geometry">
                        <mxPoint x="195" y="120" as="sourcePoint"/>
                        <mxPoint x="160" y="130" as="targetPoint"/>
                    </mxGeometry>
                </mxCell>
                <mxCell id="IqH7RvX4oLX1a9FG3Iel-152" value="" style="endArrow=none;html=1;exitX=0;exitY=0.5;exitDx=0;exitDy=0;entryX=1;entryY=0.25;entryDx=0;entryDy=0;" parent="1" source="IqH7RvX4oLX1a9FG3Iel-169" target="IqH7RvX4oLX1a9FG3Iel-44" edge="1">
                    <mxGeometry width="50" height="50" relative="1" as="geometry">
                        <mxPoint x="140" y="-490" as="sourcePoint"/>
                        <mxPoint x="130" y="-290" as="targetPoint"/>
                        <Array as="points">
                            <mxPoint x="50" y="-470"/>
                        </Array>
                    </mxGeometry>
                </mxCell>
                <mxCell id="IqH7RvX4oLX1a9FG3Iel-153" value="" style="endArrow=none;html=1;exitX=0;exitY=0.25;exitDx=0;exitDy=0;entryX=1;entryY=0.5;entryDx=0;entryDy=0;" parent="1" source="IqH7RvX4oLX1a9FG3Iel-44" target="IqH7RvX4oLX1a9FG3Iel-15" edge="1">
                    <mxGeometry width="50" height="50" relative="1" as="geometry">
                        <mxPoint x="175" y="-290" as="sourcePoint"/>
                        <mxPoint x="140" y="-280" as="targetPoint"/>
                    </mxGeometry>
                </mxCell>
                <mxCell id="IqH7RvX4oLX1a9FG3Iel-154" value="" style="endArrow=none;html=1;exitX=0;exitY=0;exitDx=0;exitDy=0;entryX=1;entryY=1;entryDx=0;entryDy=0;" parent="1" source="IqH7RvX4oLX1a9FG3Iel-44" target="IqH7RvX4oLX1a9FG3Iel-11" edge="1">
                    <mxGeometry width="50" height="50" relative="1" as="geometry">
                        <mxPoint x="185" y="-280" as="sourcePoint"/>
                        <mxPoint x="150" y="-270" as="targetPoint"/>
                    </mxGeometry>
                </mxCell>
                <mxCell id="IqH7RvX4oLX1a9FG3Iel-158" value="" style="endArrow=none;html=1;exitX=0.5;exitY=0;exitDx=0;exitDy=0;entryX=0;entryY=0.5;entryDx=0;entryDy=0;" parent="1" source="IqH7RvX4oLX1a9FG3Iel-47" target="IqH7RvX4oLX1a9FG3Iel-44" edge="1">
                    <mxGeometry width="50" height="50" relative="1" as="geometry">
                        <mxPoint x="150" y="-345" as="sourcePoint"/>
                        <mxPoint x="200" y="-395" as="targetPoint"/>
                    </mxGeometry>
                </mxCell>
                <mxCell id="IqH7RvX4oLX1a9FG3Iel-159" value="" style="endArrow=none;html=1;entryX=0;entryY=0.5;entryDx=0;entryDy=0;exitX=1;exitY=0.75;exitDx=0;exitDy=0;" parent="1" source="IqH7RvX4oLX1a9FG3Iel-44" target="IqH7RvX4oLX1a9FG3Iel-170" edge="1">
                    <mxGeometry width="50" height="50" relative="1" as="geometry">
                        <mxPoint x="160" y="-335" as="sourcePoint"/>
                        <mxPoint x="210" y="-385" as="targetPoint"/>
                    </mxGeometry>
                </mxCell>
                <mxCell id="IqH7RvX4oLX1a9FG3Iel-161" value="" style="endArrow=none;html=1;entryX=1;entryY=1;entryDx=0;entryDy=0;exitX=0;exitY=0.5;exitDx=0;exitDy=0;" parent="1" source="IqH7RvX4oLX1a9FG3Iel-38" target="IqH7RvX4oLX1a9FG3Iel-39" edge="1">
                    <mxGeometry width="50" height="50" relative="1" as="geometry">
                        <mxPoint x="70" y="-460" as="sourcePoint"/>
                        <mxPoint x="120" y="-510" as="targetPoint"/>
                    </mxGeometry>
                </mxCell>
                <mxCell id="IqH7RvX4oLX1a9FG3Iel-162" value="" style="endArrow=none;html=1;entryX=0.5;entryY=1;entryDx=0;entryDy=0;" parent="1" source="IqH7RvX4oLX1a9FG3Iel-38" target="IqH7RvX4oLX1a9FG3Iel-40" edge="1">
                    <mxGeometry width="50" height="50" relative="1" as="geometry">
                        <mxPoint x="80" y="-450" as="sourcePoint"/>
                        <mxPoint x="130" y="-500" as="targetPoint"/>
                    </mxGeometry>
                </mxCell>
                <mxCell id="IqH7RvX4oLX1a9FG3Iel-163" value="" style="endArrow=none;html=1;entryX=0.5;entryY=1;entryDx=0;entryDy=0;exitX=1;exitY=0.5;exitDx=0;exitDy=0;" parent="1" source="IqH7RvX4oLX1a9FG3Iel-169" target="IqH7RvX4oLX1a9FG3Iel-38" edge="1">
                    <mxGeometry width="50" height="50" relative="1" as="geometry">
                        <mxPoint x="160" y="-335" as="sourcePoint"/>
                        <mxPoint x="210" y="-385" as="targetPoint"/>
                        <Array as="points">
                            <mxPoint x="195" y="-560"/>
                        </Array>
                    </mxGeometry>
                </mxCell>
                <mxCell id="IqH7RvX4oLX1a9FG3Iel-164" value="" style="endArrow=none;html=1;entryX=0;entryY=0.5;entryDx=0;entryDy=0;exitX=1;exitY=0.5;exitDx=0;exitDy=0;" parent="1" source="IqH7RvX4oLX1a9FG3Iel-170" target="IqH7RvX4oLX1a9FG3Iel-114" edge="1">
                    <mxGeometry width="50" height="50" relative="1" as="geometry">
                        <mxPoint x="170" y="-325" as="sourcePoint"/>
                        <mxPoint x="220" y="-375" as="targetPoint"/>
                    </mxGeometry>
                </mxCell>
                <mxCell id="IqH7RvX4oLX1a9FG3Iel-166" value="" style="endArrow=none;html=1;exitX=0.5;exitY=0;exitDx=0;exitDy=0;entryX=0;entryY=1;entryDx=0;entryDy=0;" parent="1" source="IqH7RvX4oLX1a9FG3Iel-49" target="IqH7RvX4oLX1a9FG3Iel-44" edge="1">
                    <mxGeometry width="50" height="50" relative="1" as="geometry">
                        <mxPoint x="133" y="-345" as="sourcePoint"/>
                        <mxPoint x="183" y="-395" as="targetPoint"/>
                    </mxGeometry>
                </mxCell>
                <mxCell id="IqH7RvX4oLX1a9FG3Iel-167" value="" style="endArrow=none;html=1;entryX=0.5;entryY=1;entryDx=0;entryDy=0;exitX=1;exitY=0.083;exitDx=0;exitDy=0;exitPerimeter=0;" parent="1" source="IqH7RvX4oLX1a9FG3Iel-44" target="IqH7RvX4oLX1a9FG3Iel-45" edge="1">
                    <mxGeometry width="50" height="50" relative="1" as="geometry">
                        <mxPoint x="5" y="-490" as="sourcePoint"/>
                        <mxPoint x="5" y="-560" as="targetPoint"/>
                    </mxGeometry>
                </mxCell>
                <mxCell id="IqH7RvX4oLX1a9FG3Iel-168" value="" style="endArrow=none;html=1;entryX=0.5;entryY=1;entryDx=0;entryDy=0;" parent="1" source="IqH7RvX4oLX1a9FG3Iel-44" target="IqH7RvX4oLX1a9FG3Iel-19" edge="1">
                    <mxGeometry width="50" height="50" relative="1" as="geometry">
                        <mxPoint x="190" y="-305" as="sourcePoint"/>
                        <mxPoint x="240" y="-355" as="targetPoint"/>
                    </mxGeometry>
                </mxCell>
                <mxCell id="IqH7RvX4oLX1a9FG3Iel-169" value="Hosts&lt;br&gt;" style="rhombus;whiteSpace=wrap;html=1;" parent="1" vertex="1">
                    <mxGeometry x="50" y="-600" width="80" height="80" as="geometry"/>
                </mxCell>
                <mxCell id="IqH7RvX4oLX1a9FG3Iel-170" value="signup" style="rhombus;whiteSpace=wrap;html=1;" parent="1" vertex="1">
                    <mxGeometry x="130" y="-550" width="80" height="80" as="geometry"/>
                </mxCell>
                <mxCell id="IqH7RvX4oLX1a9FG3Iel-171" value="takesPlace" style="rhombus;whiteSpace=wrap;html=1;" parent="1" vertex="1">
                    <mxGeometry x="-60" y="-230" width="80" height="80" as="geometry"/>
                </mxCell>
                <mxCell id="IqH7RvX4oLX1a9FG3Iel-172" value="" style="endArrow=none;html=1;entryX=0.5;entryY=1;entryDx=0;entryDy=0;exitX=0.25;exitY=0;exitDx=0;exitDy=0;" parent="1" source="IqH7RvX4oLX1a9FG3Iel-44" target="IqH7RvX4oLX1a9FG3Iel-20" edge="1">
                    <mxGeometry width="50" height="50" relative="1" as="geometry">
                        <mxPoint x="200" y="-295" as="sourcePoint"/>
                        <mxPoint x="250" y="-345" as="targetPoint"/>
                    </mxGeometry>
                </mxCell>
                <mxCell id="IqH7RvX4oLX1a9FG3Iel-173" value="" style="endArrow=none;html=1;entryX=0;entryY=0.5;entryDx=0;entryDy=0;exitX=1;exitY=1;exitDx=0;exitDy=0;" parent="1" source="IqH7RvX4oLX1a9FG3Iel-44" target="IqH7RvX4oLX1a9FG3Iel-181" edge="1">
                    <mxGeometry width="50" height="50" relative="1" as="geometry">
                        <mxPoint x="210" y="-285" as="sourcePoint"/>
                        <mxPoint x="260" y="-335" as="targetPoint"/>
                    </mxGeometry>
                </mxCell>
                <mxCell id="IqH7RvX4oLX1a9FG3Iel-178" value="partOf" style="rhombus;whiteSpace=wrap;html=1;" parent="1" vertex="1">
                    <mxGeometry x="720" y="-105" width="80" height="80" as="geometry"/>
                </mxCell>
                <mxCell id="IqH7RvX4oLX1a9FG3Iel-179" value="" style="endArrow=none;html=1;entryX=1;entryY=0.5;entryDx=0;entryDy=0;exitX=0.5;exitY=1;exitDx=0;exitDy=0;strokeWidth=1;" parent="1" source="IqH7RvX4oLX1a9FG3Iel-178" target="IqH7RvX4oLX1a9FG3Iel-3" edge="1">
                    <mxGeometry width="50" height="50" relative="1" as="geometry">
                        <mxPoint x="770" y="-110" as="sourcePoint"/>
                        <mxPoint x="770" y="-230" as="targetPoint"/>
                        <Array as="points">
                            <mxPoint x="760"/>
                            <mxPoint x="750"/>
                            <mxPoint x="620"/>
                        </Array>
                    </mxGeometry>
                </mxCell>
                <mxCell id="IqH7RvX4oLX1a9FG3Iel-181" value="Comments" style="rhombus;whiteSpace=wrap;html=1;" parent="1" vertex="1">
                    <mxGeometry x="95" y="-470" width="80" height="80" as="geometry"/>
                </mxCell>
                <mxCell id="IqH7RvX4oLX1a9FG3Iel-182" value="" style="endArrow=none;html=1;entryX=0;entryY=1;entryDx=0;entryDy=0;exitX=1;exitY=0;exitDx=0;exitDy=0;" parent="1" source="IqH7RvX4oLX1a9FG3Iel-184" target="IqH7RvX4oLX1a9FG3Iel-114" edge="1">
                    <mxGeometry width="50" height="50" relative="1" as="geometry">
                        <mxPoint x="220" y="-275" as="sourcePoint"/>
                        <mxPoint x="270" y="-325" as="targetPoint"/>
                    </mxGeometry>
                </mxCell>
                <mxCell id="IqH7RvX4oLX1a9FG3Iel-183" value="" style="endArrow=none;html=1;entryX=0;entryY=0.75;entryDx=0;entryDy=0;exitX=1;exitY=0.5;exitDx=0;exitDy=0;" parent="1" source="IqH7RvX4oLX1a9FG3Iel-181" target="IqH7RvX4oLX1a9FG3Iel-114" edge="1">
                    <mxGeometry width="50" height="50" relative="1" as="geometry">
                        <mxPoint x="230" y="-265" as="sourcePoint"/>
                        <mxPoint x="280" y="-315" as="targetPoint"/>
                    </mxGeometry>
                </mxCell>
                <mxCell id="IqH7RvX4oLX1a9FG3Iel-184" value="rates" style="rhombus;whiteSpace=wrap;html=1;" parent="1" vertex="1">
                    <mxGeometry x="110" y="-120" width="80" height="80" as="geometry"/>
                </mxCell>
                <mxCell id="IqH7RvX4oLX1a9FG3Iel-185" value="" style="endArrow=none;html=1;exitX=0;exitY=0;exitDx=0;exitDy=0;" parent="1" source="IqH7RvX4oLX1a9FG3Iel-184" target="IqH7RvX4oLX1a9FG3Iel-44" edge="1">
                    <mxGeometry width="50" height="50" relative="1" as="geometry">
                        <mxPoint x="190" y="-240" as="sourcePoint"/>
                        <mxPoint x="414" y="-360" as="targetPoint"/>
                    </mxGeometry>
                </mxCell>
                <mxCell id="IqH7RvX4oLX1a9FG3Iel-186" value="" style="endArrow=none;html=1;entryX=0;entryY=0;entryDx=0;entryDy=0;exitX=1;exitY=0.5;exitDx=0;exitDy=0;" parent="1" source="IqH7RvX4oLX1a9FG3Iel-188" target="IqH7RvX4oLX1a9FG3Iel-114" edge="1">
                    <mxGeometry width="50" height="50" relative="1" as="geometry">
                        <mxPoint x="176" y="-120" as="sourcePoint"/>
                        <mxPoint x="400" y="-240" as="targetPoint"/>
                        <Array as="points">
                            <mxPoint x="410" y="-560"/>
                        </Array>
                    </mxGeometry>
                </mxCell>
                <mxCell id="IqH7RvX4oLX1a9FG3Iel-187" value="" style="endArrow=none;html=1;exitX=0.75;exitY=1;exitDx=0;exitDy=0;entryX=0;entryY=0;entryDx=0;entryDy=0;" parent="1" source="IqH7RvX4oLX1a9FG3Iel-38" target="IqH7RvX4oLX1a9FG3Iel-188" edge="1">
                    <mxGeometry width="50" height="50" relative="1" as="geometry">
                        <mxPoint x="186" y="-110" as="sourcePoint"/>
                        <mxPoint x="244" y="-597" as="targetPoint"/>
                    </mxGeometry>
                </mxCell>
                <mxCell id="IqH7RvX4oLX1a9FG3Iel-188" value="isaMembeOf" style="rhombus;whiteSpace=wrap;html=1;" parent="1" vertex="1">
                    <mxGeometry x="235" y="-600" width="80" height="80" as="geometry"/>
                </mxCell>
                <mxCell id="IqH7RvX4oLX1a9FG3Iel-189" value="" style="endArrow=classic;html=1;entryX=0.5;entryY=0;entryDx=0;entryDy=0;exitX=0.5;exitY=1;exitDx=0;exitDy=0;strokeWidth=4;" parent="1" source="IqH7RvX4oLX1a9FG3Iel-74" target="IqH7RvX4oLX1a9FG3Iel-135" edge="1">
                    <mxGeometry width="50" height="50" relative="1" as="geometry">
                        <mxPoint x="330" y="-40" as="sourcePoint"/>
                        <mxPoint x="380" y="-90" as="targetPoint"/>
                    </mxGeometry>
                </mxCell>
                <mxCell id="IqH7RvX4oLX1a9FG3Iel-190" value="" style="endArrow=none;html=1;strokeWidth=1;entryX=0.5;entryY=0;entryDx=0;entryDy=0;exitX=0.5;exitY=1;exitDx=0;exitDy=0;" parent="1" source="IqH7RvX4oLX1a9FG3Iel-135" target="IqH7RvX4oLX1a9FG3Iel-3" edge="1">
                    <mxGeometry width="50" height="50" relative="1" as="geometry">
                        <mxPoint x="240" y="-130" as="sourcePoint"/>
                        <mxPoint x="310" y="-80" as="targetPoint"/>
                    </mxGeometry>
                </mxCell>
                <mxCell id="jZ8GZM-DensdIx6yP5iN-2" value="" style="endArrow=classic;html=1;strokeWidth=4;exitX=1;exitY=0.75;exitDx=0;exitDy=0;entryX=0.5;entryY=0;entryDx=0;entryDy=0;" parent="1" source="IqH7RvX4oLX1a9FG3Iel-114" target="IqH7RvX4oLX1a9FG3Iel-178" edge="1">
                    <mxGeometry width="50" height="50" relative="1" as="geometry">
                        <mxPoint x="815" y="-400" as="sourcePoint"/>
                        <mxPoint x="740" as="targetPoint"/>
                        <Array as="points">
                            <mxPoint x="760" y="-515"/>
                            <mxPoint x="760" y="-400"/>
                            <mxPoint x="760" y="-230"/>
                        </Array>
                    </mxGeometry>
                </mxCell>
                <mxCell id="jZ8GZM-DensdIx6yP5iN-3" value="" style="endArrow=classic;html=1;strokeWidth=1;entryX=0;entryY=0.5;entryDx=0;entryDy=0;" parent="1" target="IqH7RvX4oLX1a9FG3Iel-147" edge="1">
                    <mxGeometry width="50" height="50" relative="1" as="geometry">
                        <mxPoint x="240" as="sourcePoint"/>
                        <mxPoint x="-70" y="-50" as="targetPoint"/>
                    </mxGeometry>
                </mxCell>
                <mxCell id="jZ8GZM-DensdIx6yP5iN-4" value="" style="endArrow=classic;html=1;strokeWidth=1;entryX=0.5;entryY=1;entryDx=0;entryDy=0;exitX=0;exitY=0.25;exitDx=0;exitDy=0;" parent="1" source="IqH7RvX4oLX1a9FG3Iel-4" target="IqH7RvX4oLX1a9FG3Iel-171" edge="1">
                    <mxGeometry width="50" height="50" relative="1" as="geometry">
                        <mxPoint x="-150" y="-20" as="sourcePoint"/>
                        <mxPoint x="-100" y="-70" as="targetPoint"/>
                    </mxGeometry>
                </mxCell>
                <mxCell id="jZ8GZM-DensdIx6yP5iN-5" value="" style="endArrow=classic;html=1;strokeWidth=4;exitX=0;exitY=0.5;exitDx=0;exitDy=0;entryX=1;entryY=0.5;entryDx=0;entryDy=0;" parent="1" source="IqH7RvX4oLX1a9FG3Iel-3" target="IqH7RvX4oLX1a9FG3Iel-147" edge="1">
                    <mxGeometry width="50" height="50" relative="1" as="geometry">
                        <mxPoint x="-60" y="-10" as="sourcePoint"/>
                        <mxPoint x="-10" y="-60" as="targetPoint"/>
                    </mxGeometry>
                </mxCell>
                <mxCell id="jZ8GZM-DensdIx6yP5iN-6" value="" style="endArrow=classic;html=1;strokeWidth=4;exitX=0.5;exitY=1;exitDx=0;exitDy=0;entryX=0.5;entryY=0;entryDx=0;entryDy=0;" parent="1" source="IqH7RvX4oLX1a9FG3Iel-44" target="IqH7RvX4oLX1a9FG3Iel-171" edge="1">
                    <mxGeometry width="50" height="50" relative="1" as="geometry">
                        <mxPoint x="-130" y="-90" as="sourcePoint"/>
                        <mxPoint x="-80" y="-140" as="targetPoint"/>
                    </mxGeometry>
                </mxCell>
                <mxCell id="JxfIPIKN2WuropubkDI7-1" value="rating" style="ellipse;whiteSpace=wrap;html=1;" parent="1" vertex="1">
                    <mxGeometry x="220" y="-115" width="70" height="70" as="geometry"/>
                </mxCell>
                <mxCell id="JxfIPIKN2WuropubkDI7-2" value="comment" style="ellipse;whiteSpace=wrap;html=1;" parent="1" vertex="1">
                    <mxGeometry x="140" y="-390" width="70" height="70" as="geometry"/>
                </mxCell>
                <mxCell id="JxfIPIKN2WuropubkDI7-3" value="" style="endArrow=none;html=1;exitX=1;exitY=0.5;exitDx=0;exitDy=0;entryX=0;entryY=0.5;entryDx=0;entryDy=0;" parent="1" source="IqH7RvX4oLX1a9FG3Iel-184" target="JxfIPIKN2WuropubkDI7-1" edge="1">
                    <mxGeometry width="50" height="50" relative="1" as="geometry">
                        <mxPoint x="310" y="-290" as="sourcePoint"/>
                        <mxPoint x="360" y="-340" as="targetPoint"/>
                    </mxGeometry>
                </mxCell>
                <mxCell id="JxfIPIKN2WuropubkDI7-4" value="" style="endArrow=none;html=1;entryX=0.5;entryY=1;entryDx=0;entryDy=0;exitX=0;exitY=0;exitDx=0;exitDy=0;" parent="1" source="JxfIPIKN2WuropubkDI7-2" target="IqH7RvX4oLX1a9FG3Iel-181" edge="1">
                    <mxGeometry width="50" height="50" relative="1" as="geometry">
                        <mxPoint x="170" y="-280" as="sourcePoint"/>
                        <mxPoint x="370" y="-330" as="targetPoint"/>
                    </mxGeometry>
                </mxCell>
                <mxCell id="KFVftmU8vxUX3eYTeZf3-1" value="s_profilePicture" style="ellipse;whiteSpace=wrap;html=1;aspect=fixed;" parent="1" vertex="1">
                    <mxGeometry x="590" y="-460" width="70" height="70" as="geometry"/>
                </mxCell>
                <mxCell id="KFVftmU8vxUX3eYTeZf3-2" value="e_profilePicture&lt;br&gt;" style="ellipse;whiteSpace=wrap;html=1;aspect=fixed;" parent="1" vertex="1">
                    <mxGeometry x="-340" y="-600" width="70" height="70" as="geometry"/>
                </mxCell>
                <mxCell id="KFVftmU8vxUX3eYTeZf3-3" value="rso_profilePicture&lt;br&gt;" style="ellipse;whiteSpace=wrap;html=1;aspect=fixed;" parent="1" vertex="1">
                    <mxGeometry x="285" y="-820" width="70" height="70" as="geometry"/>
                </mxCell>
                <mxCell id="KFVftmU8vxUX3eYTeZf3-4" value="u_profilePicture" style="ellipse;whiteSpace=wrap;html=1;aspect=fixed;" parent="1" vertex="1">
                    <mxGeometry x="670" y="40" width="70" height="70" as="geometry"/>
                </mxCell>
                <mxCell id="KFVftmU8vxUX3eYTeZf3-5" value="e_discription&lt;br&gt;" style="ellipse;whiteSpace=wrap;html=1;aspect=fixed;" parent="1" vertex="1">
                    <mxGeometry x="-190" y="-760" width="70" height="70" as="geometry"/>
                </mxCell>
                <mxCell id="KFVftmU8vxUX3eYTeZf3-6" value="rso_discription" style="ellipse;whiteSpace=wrap;html=1;aspect=fixed;" parent="1" vertex="1">
                    <mxGeometry x="355" y="-780" width="70" height="70" as="geometry"/>
                </mxCell>
                <mxCell id="KFVftmU8vxUX3eYTeZf3-7" value="" style="endArrow=none;html=1;entryX=1;entryY=1;entryDx=0;entryDy=0;exitX=0.383;exitY=0.017;exitDx=0;exitDy=0;exitPerimeter=0;" parent="1" source="IqH7RvX4oLX1a9FG3Iel-44" target="KFVftmU8vxUX3eYTeZf3-5" edge="1">
                    <mxGeometry width="50" height="50" relative="1" as="geometry">
                        <mxPoint x="-85" y="-755" as="sourcePoint"/>
                        <mxPoint x="-35" y="-805" as="targetPoint"/>
                    </mxGeometry>
                </mxCell>
                <mxCell id="KFVftmU8vxUX3eYTeZf3-8" value="" style="endArrow=none;html=1;exitX=1;exitY=1;exitDx=0;exitDy=0;entryX=0;entryY=0.25;entryDx=0;entryDy=0;" parent="1" source="KFVftmU8vxUX3eYTeZf3-2" target="IqH7RvX4oLX1a9FG3Iel-44" edge="1">
                    <mxGeometry width="50" height="50" relative="1" as="geometry">
                        <mxPoint x="-75" y="-745" as="sourcePoint"/>
                        <mxPoint x="-25" y="-795" as="targetPoint"/>
                    </mxGeometry>
                </mxCell>
                <mxCell id="KFVftmU8vxUX3eYTeZf3-10" value="" style="endArrow=none;html=1;entryX=0;entryY=0;entryDx=0;entryDy=0;exitX=1;exitY=1;exitDx=0;exitDy=0;" parent="1" source="IqH7RvX4oLX1a9FG3Iel-114" target="KFVftmU8vxUX3eYTeZf3-1" edge="1">
                    <mxGeometry width="50" height="50" relative="1" as="geometry">
                        <mxPoint x="785" y="-430" as="sourcePoint"/>
                        <mxPoint x="-5" y="-775" as="targetPoint"/>
                    </mxGeometry>
                </mxCell>
                <mxCell id="KFVftmU8vxUX3eYTeZf3-11" value="" style="endArrow=none;html=1;entryX=0;entryY=1;entryDx=0;entryDy=0;exitX=1;exitY=0;exitDx=0;exitDy=0;" parent="1" source="IqH7RvX4oLX1a9FG3Iel-38" target="KFVftmU8vxUX3eYTeZf3-6" edge="1">
                    <mxGeometry width="50" height="50" relative="1" as="geometry">
                        <mxPoint x="-45" y="-715" as="sourcePoint"/>
                        <mxPoint x="5" y="-765" as="targetPoint"/>
                    </mxGeometry>
                </mxCell>
                <mxCell id="KFVftmU8vxUX3eYTeZf3-12" value="" style="endArrow=none;html=1;entryX=0.5;entryY=1;entryDx=0;entryDy=0;exitX=0.75;exitY=0;exitDx=0;exitDy=0;" parent="1" source="IqH7RvX4oLX1a9FG3Iel-38" target="KFVftmU8vxUX3eYTeZf3-3" edge="1">
                    <mxGeometry width="50" height="50" relative="1" as="geometry">
                        <mxPoint x="-35" y="-705" as="sourcePoint"/>
                        <mxPoint x="15" y="-755" as="targetPoint"/>
                    </mxGeometry>
                </mxCell>
                <mxCell id="KFVftmU8vxUX3eYTeZf3-13" value="" style="endArrow=none;html=1;exitX=1;exitY=0.75;exitDx=0;exitDy=0;" parent="1" source="IqH7RvX4oLX1a9FG3Iel-3" target="KFVftmU8vxUX3eYTeZf3-4" edge="1">
                    <mxGeometry width="50" height="50" relative="1" as="geometry">
                        <mxPoint x="570" y="60" as="sourcePoint"/>
                        <mxPoint x="620" y="10" as="targetPoint"/>
                    </mxGeometry>
                </mxCell>
                <mxCell id="KFVftmU8vxUX3eYTeZf3-17" value="&lt;u&gt;s_id&lt;/u&gt;" style="ellipse;whiteSpace=wrap;html=1;" parent="1" vertex="1">
                    <mxGeometry x="65" y="-850" width="70" height="70" as="geometry"/>
                </mxCell>
                <mxCell id="KFVftmU8vxUX3eYTeZf3-21" value="" style="endArrow=none;html=1;strokeWidth=1;entryX=0.714;entryY=0.957;entryDx=0;entryDy=0;entryPerimeter=0;exitX=0.25;exitY=0;exitDx=0;exitDy=0;" parent="1" source="IqH7RvX4oLX1a9FG3Iel-38" target="KFVftmU8vxUX3eYTeZf3-17" edge="1">
                    <mxGeometry width="50" height="50" relative="1" as="geometry">
                        <mxPoint x="310" y="-560" as="sourcePoint"/>
                        <mxPoint x="360" y="-610" as="targetPoint"/>
                    </mxGeometry>
                </mxCell>
                <mxCell id="zkmAvDBDTJIBMIjfvuaB-2" value="" style="endArrow=none;html=1;entryX=1;entryY=0.5;entryDx=0;entryDy=0;" parent="1" source="zkmAvDBDTJIBMIjfvuaB-3" target="IqH7RvX4oLX1a9FG3Iel-74" edge="1">
                    <mxGeometry width="50" height="50" relative="1" as="geometry">
                        <mxPoint x="825" y="-790" as="sourcePoint"/>
                        <mxPoint x="735" y="-360" as="targetPoint"/>
                    </mxGeometry>
                </mxCell>
                <mxCell id="zkmAvDBDTJIBMIjfvuaB-3" value="sa_email" style="ellipse;whiteSpace=wrap;html=1;" parent="1" vertex="1">
                    <mxGeometry x="600" y="-260" width="70" height="70" as="geometry"/>
                </mxCell>
                <mxCell id="zkmAvDBDTJIBMIjfvuaB-4" value="" style="endArrow=none;html=1;exitX=0;exitY=1;exitDx=0;exitDy=0;entryX=0.75;entryY=0;entryDx=0;entryDy=0;" parent="1" source="zkmAvDBDTJIBMIjfvuaB-9" target="IqH7RvX4oLX1a9FG3Iel-114" edge="1">
                    <mxGeometry width="50" height="50" relative="1" as="geometry">
                        <mxPoint x="835" y="-780" as="sourcePoint"/>
                        <mxPoint x="795" y="-360" as="targetPoint"/>
                    </mxGeometry>
                </mxCell>
                <mxCell id="zkmAvDBDTJIBMIjfvuaB-6" value="" style="endArrow=none;html=1;exitX=0;exitY=0.5;exitDx=0;exitDy=0;" parent="1" source="IqH7RvX4oLX1a9FG3Iel-74" edge="1">
                    <mxGeometry width="50" height="50" relative="1" as="geometry">
                        <mxPoint x="795" y="-420" as="sourcePoint"/>
                        <mxPoint x="381" y="-193" as="targetPoint"/>
                    </mxGeometry>
                </mxCell>
                <mxCell id="zkmAvDBDTJIBMIjfvuaB-7" value="" style="endArrow=none;html=1;exitX=0;exitY=0.5;exitDx=0;exitDy=0;entryX=1;entryY=0.5;entryDx=0;entryDy=0;" parent="1" source="zkmAvDBDTJIBMIjfvuaB-12" target="IqH7RvX4oLX1a9FG3Iel-114" edge="1">
                    <mxGeometry width="50" height="50" relative="1" as="geometry">
                        <mxPoint x="865" y="-750" as="sourcePoint"/>
                        <mxPoint x="770" y="-420" as="targetPoint"/>
                    </mxGeometry>
                </mxCell>
                <mxCell id="zkmAvDBDTJIBMIjfvuaB-8" value="" style="endArrow=none;html=1;exitX=0.5;exitY=1;exitDx=0;exitDy=0;entryX=0.5;entryY=0;entryDx=0;entryDy=0;" parent="1" source="zkmAvDBDTJIBMIjfvuaB-13" target="IqH7RvX4oLX1a9FG3Iel-114" edge="1">
                    <mxGeometry width="50" height="50" relative="1" as="geometry">
                        <mxPoint x="845" y="-770" as="sourcePoint"/>
                        <mxPoint x="735" y="-420" as="targetPoint"/>
                    </mxGeometry>
                </mxCell>
                <mxCell id="zkmAvDBDTJIBMIjfvuaB-9" value="s_lastName" style="ellipse;whiteSpace=wrap;html=1;" parent="1" vertex="1">
                    <mxGeometry x="530" y="-700" width="70" height="70" as="geometry"/>
                </mxCell>
                <mxCell id="zkmAvDBDTJIBMIjfvuaB-11" value="sa_profilePicture" style="ellipse;whiteSpace=wrap;html=1;aspect=fixed;" parent="1" vertex="1">
                    <mxGeometry x="310" y="-235" width="70" height="70" as="geometry"/>
                </mxCell>
                <mxCell id="zkmAvDBDTJIBMIjfvuaB-12" value="s_password" style="ellipse;whiteSpace=wrap;html=1;direction=east;" parent="1" vertex="1">
                    <mxGeometry x="619" y="-670" width="70" height="70" as="geometry"/>
                </mxCell>
                <mxCell id="zkmAvDBDTJIBMIjfvuaB-13" value="s_firstName" style="ellipse;whiteSpace=wrap;html=1;" parent="1" vertex="1">
                    <mxGeometry x="429" y="-700" width="70" height="70" as="geometry"/>
                </mxCell>
                <mxCell id="zkmAvDBDTJIBMIjfvuaB-14" value="" style="endArrow=none;html=1;strokeWidth=1;entryX=0.25;entryY=1;entryDx=0;entryDy=0;exitX=0.5;exitY=0;exitDx=0;exitDy=0;" parent="1" source="zkmAvDBDTJIBMIjfvuaB-15" target="IqH7RvX4oLX1a9FG3Iel-44" edge="1">
                    <mxGeometry width="50" height="50" relative="1" as="geometry">
                        <mxPoint x="-85" y="-370" as="sourcePoint"/>
                        <mxPoint x="110" y="-510" as="targetPoint"/>
                    </mxGeometry>
                </mxCell>
                <mxCell id="zkmAvDBDTJIBMIjfvuaB-15" value="e_type" style="ellipse;whiteSpace=wrap;html=1;aspect=fixed;" parent="1" vertex="1">
                    <mxGeometry x="-120" y="-360" width="70" height="70" as="geometry"/>
                </mxCell>
                <mxCell id="zkmAvDBDTJIBMIjfvuaB-16" value="isApproved&lt;br&gt;" style="ellipse;whiteSpace=wrap;html=1;aspect=fixed;" parent="1" vertex="1">
                    <mxGeometry x="-340" y="-430" width="70" height="70" as="geometry"/>
                </mxCell>
                <mxCell id="zkmAvDBDTJIBMIjfvuaB-17" value="" style="endArrow=none;html=1;strokeWidth=1;entryX=0;entryY=0.25;entryDx=0;entryDy=0;exitX=1;exitY=0;exitDx=0;exitDy=0;" parent="1" source="zkmAvDBDTJIBMIjfvuaB-16" target="IqH7RvX4oLX1a9FG3Iel-44" edge="1">
                    <mxGeometry width="50" height="50" relative="1" as="geometry">
                        <mxPoint x="-295" y="-347.5" as="sourcePoint"/>
                        <mxPoint x="-295" y="-402.5" as="targetPoint"/>
                    </mxGeometry>
                </mxCell>
                <mxCell id="zkmAvDBDTJIBMIjfvuaB-18" value="CreateEvents" style="rhombus;whiteSpace=wrap;html=1;" parent="1" vertex="1">
                    <mxGeometry x="110" y="-290" width="80" height="80" as="geometry"/>
                </mxCell>
                <mxCell id="zkmAvDBDTJIBMIjfvuaB-19" value="" style="endArrow=none;html=1;strokeWidth=1;entryX=0;entryY=1;entryDx=0;entryDy=0;exitX=1;exitY=0.5;exitDx=0;exitDy=0;" parent="1" source="zkmAvDBDTJIBMIjfvuaB-18" target="IqH7RvX4oLX1a9FG3Iel-114" edge="1">
                    <mxGeometry width="50" height="50" relative="1" as="geometry">
                        <mxPoint x="230" y="-420" as="sourcePoint"/>
                        <mxPoint x="280" y="-470" as="targetPoint"/>
                    </mxGeometry>
                </mxCell>
                <mxCell id="zkmAvDBDTJIBMIjfvuaB-20" value="" style="endArrow=none;html=1;strokeWidth=1;entryX=0.75;entryY=1;entryDx=0;entryDy=0;exitX=0;exitY=0.5;exitDx=0;exitDy=0;" parent="1" source="zkmAvDBDTJIBMIjfvuaB-18" target="IqH7RvX4oLX1a9FG3Iel-44" edge="1">
                    <mxGeometry width="50" height="50" relative="1" as="geometry">
                        <mxPoint x="230" y="-420" as="sourcePoint"/>
                        <mxPoint x="280" y="-470" as="targetPoint"/>
                    </mxGeometry>
                </mxCell>
            </root>
        </mxGraphModel>
    </diagram>
</mxfile>